<?xml version="1.0" encoding="utf-8"?>
<!-- Generator: Adobe Illustrator 19.1.0, SVG Export Plug-In . SVG Version: 6.00 Build 0)  -->
<svg version="1.1" id="Capa_1" xmlns="http://www.w3.org/2000/svg" xmlns:xlink="http://www.w3.org/1999/xlink" x="0px" y="0px"
	 viewBox="-75 199.1 444.8 444.8" style="enable-background:new -75 199.1 444.8 444.8;" xml:space="preserve">
<g>
	<path d="M-64.6,458.1l21.4,21.4c7.4,7.1,16.1,10.6,26,10.6c10.1,0,18.7-3.6,25.7-10.6l83.9-83.9v201c0,9.9,3.7,18.5,10.9,25.7
		c7.2,7.3,15.8,10.9,25.7,10.9h36.5c9.9,0,18.5-3.7,25.7-10.9c7.3-7.2,10.9-15.8,10.9-25.7v-201l83.9,83.9
		c7,7.1,15.6,10.6,25.7,10.6c9.9,0,18.6-3.6,26-10.6l21.1-21.4c7.3-7.2,10.9-15.9,10.9-26c0-10.3-3.6-18.9-10.8-25.7L173.1,220.3
		c-7-7.1-15.6-10.6-25.7-10.6c-9.9,0-18.6,3.6-26,10.6L-64.4,406.4c-7.1,7-10.6,15.6-10.6,25.7C-75,442-71.5,450.7-64.6,458.1z"/>
</g>
</svg>
